<?xml version="1.0" encoding="UTF-8" standalone="no"?><!DOCTYPE svg PUBLIC "-//W3C//DTD SVG 1.1//EN" "http://www.w3.org/Graphics/SVG/1.1/DTD/svg11.dtd"><svg width="100%" height="100%" viewBox="0 0 3334 3334" version="1.1" xmlns="http://www.w3.org/2000/svg" xmlns:xlink="http://www.w3.org/1999/xlink" xml:space="preserve" xmlns:serif="http://www.serif.com/" style="fill-rule:evenodd;clip-rule:evenodd;stroke-linecap:round;stroke-linejoin:round;stroke-miterlimit:1.5;"><path id="Body" d="M2534.35,1120.38l0,-35.541c-6.529,1.085 -13.057,-2.734 -15.177,-9.22l-34.199,-104.601c-2.339,-7.156 1.567,-14.868 8.718,-17.209l25.914,-8.486c7.151,-2.341 14.857,1.568 17.197,8.725l34.198,104.6c1.872,5.725 -0.254,11.806 -4.841,15.208l0,46.119c35.969,-0.46 68.074,-0.88 94.357,-1.226c59.333,-0.781 124.903,-3.125 177.987,-3.125c46.851,0 98.882,-1.042 140.517,3.125c36.967,3.7 75.463,7.292 109.291,21.875c33.828,14.583 72.048,34.216 93.678,65.625c26.542,38.542 51.919,107.835 65.574,165.625c14.399,60.938 17.348,135.417 20.817,200c3.353,62.41 3.199,125.082 0,187.5c-3.469,67.708 -10.582,161.458 -20.817,218.75c-7.705,43.128 -21.338,92.188 -40.594,125c-17.522,29.858 -44.163,56.057 -74.942,71.875c-38.512,19.792 -102.351,39.117 -156.13,46.875c-57.768,8.333 -126.978,2.764 -190.478,3.125c-57.779,0.329 -137.923,0.083 -219.26,-0.043l0,36.992c4.587,3.402 6.713,9.483 4.841,15.208l-34.198,104.6c-2.34,7.157 -10.046,11.066 -17.197,8.725l-25.914,-8.486c-7.151,-2.341 -11.057,-10.053 -8.718,-17.209l34.199,-104.601c2.12,-6.486 8.648,-10.305 15.177,-9.22l0,-26.05c-37.006,-0.038 -73.674,-0.031 -108.028,0.084c-155.089,0.521 -380.955,2.291 -571.434,3.125c-237.838,1.042 -605.263,2.083 -855.591,3.125c-215.459,0.897 -510.023,5.208 -646.377,3.125c-57.476,-0.878 -133.751,-5.729 -171.742,-15.625c-22.97,-5.983 -47.102,-21.814 -56.207,-43.75c-14.052,-33.854 -23.127,-105.66 -28.103,-159.375c-7.286,-78.646 -14.052,-227.604 -15.613,-312.5c-1.207,-65.647 3.122,-132.292 6.245,-196.875c3.075,-63.604 5.204,-137.5 12.49,-190.625c5.974,-43.552 14.572,-100 31.226,-128.125c13.56,-22.9 42.823,-34.46 68.697,-40.625c32.788,-7.813 85.305,-5.641 128.027,-6.25c182.671,-2.604 668.235,-6.771 968.003,-9.375c276.868,-2.405 603.181,-4.167 830.61,-6.25c127.3,-1.166 284.943,-3.062 407.797,-4.619Z" style="fill:#546e7a;stroke:#212121;stroke-width:20.83px;"/><path id="Bonnet" d="M2691.74,2183c21.891,-3.017 108.471,-10.992 159.629,-28.424c60.476,-20.607 150.646,-64.664 203.231,-95.22c41.133,-23.902 85.217,-48.983 112.274,-88.114c28.661,-41.451 50.722,-104.193 59.69,-160.594c10.659,-67.033 7.58,-177.887 4.264,-241.603c-2.474,-47.522 -10.896,-99.721 -24.161,-140.699c-12.203,-37.7 -26.232,-78.373 -55.426,-105.168c-34.583,-31.74 -98.071,-63.787 -152.068,-85.271c-67.27,-26.766 -195.177,-61.112 -251.551,-75.324c-28.205,-7.11 -74.762,-9.648 -86.693,-9.948c-5.718,-0.144 10.113,5.349 15.103,8.145c7.271,4.074 22.024,7.762 28.524,16.299c6.5,8.538 9.918,22.786 10.478,34.928c6.948,150.509 28.4,715.654 31.208,868.129c0.3,16.291 -9.781,34.207 -14.357,46.724c-3.577,9.785 -7.038,19.903 -13.098,28.378c-6.69,9.357 -43.451,30.023 -27.047,27.762Z" style="fill:#607d8b;stroke:#fff;stroke-width:3.13px;"/><path id="Grill" d="M3196.88,1409.56c14.66,0 46.875,112.643 46.875,251.388c0,138.745 -29.09,251.389 -43.75,251.389c4.398,-58.657 25.156,-151.108 25.156,-251.389c0,-100.28 -23.883,-192.731 -28.281,-251.388Z" style="fill:#212121;stroke:#fff;stroke-width:3.13px;"/><path id="Roof-Line-Right" serif:id="Roof Line Right" d="M2336.2,2054.99l-2020.57,-3.485l-168.75,139.121l168.75,-112.389l2020.57,7.981l0,-31.228Z" style="fill:#212121;"/><rect id="Roof-Layer-Top" serif:id="Roof Layer Top" x="315.625" y="1277.63" width="2056.25" height="773.877" style="fill:#607d8b;"/><path id="Roof-Line-Left" serif:id="Roof Line Left" d="M2336.2,1261.24l-2020.64,4.326l-162.428,-87.44l162.5,115.888l2020.57,-1.546l0,-31.228Z" style="fill:#212121;"/><path id="Headlight-Right" serif:id="Headlight Right" d="M3213.27,1912.5c-5.73,2.083 -19.53,23.676 -25.768,37.5c-8.461,18.75 -16.146,51.042 -25,75c-8.583,23.225 -17.708,49.479 -28.125,68.75c-9.214,17.045 -20.225,33.638 -34.375,46.875c-16.146,15.104 -54.167,35.417 -62.5,43.75c-3.294,3.294 7.867,6.738 12.5,6.25c9.896,-1.042 32.512,-5.071 46.875,-12.5c15.104,-7.813 31.917,-20.094 43.75,-34.375c15.104,-18.229 34.768,-50.521 46.875,-75c11.283,-22.814 20.038,-50 25.768,-71.875c5.066,-19.346 8.607,-45.313 8.607,-59.375c0,-8.813 -2.878,-27.083 -8.607,-25Z" style="fill:#fff;stroke:#000;stroke-width:3.13px;"/><path id="Headlight-Left" serif:id="Headlight Left" d="M3209.38,1409.38c4.688,-2.083 4.309,-22.93 3.125,-34.375c-1.563,-15.104 -6.887,-37.881 -12.5,-56.25c-5.729,-18.75 -12.685,-38.354 -21.875,-56.25c-9.896,-19.271 -23.438,-43.229 -37.5,-59.375c-13.142,-15.089 -31.771,-28.125 -46.875,-37.5c-13.481,-8.367 -31.25,-15.104 -43.75,-18.75c-10.05,-2.931 -30.208,-5.208 -31.25,-3.125c-1.042,2.083 16.885,10.083 25,15.625c11.458,7.824 30.729,19.342 43.75,31.322c13.021,11.979 25.521,26.502 34.375,40.553c8.459,13.423 13.444,28.797 18.75,43.75c5.729,16.146 10.938,38.542 15.625,53.125c3.731,11.608 7.813,24.479 12.5,34.375c4.207,8.881 9.189,17.574 15.625,25c6.771,7.813 20.313,23.958 25,21.875Z" style="fill:#fff;stroke:#000;stroke-width:3.13px;"/><path id="Windscreen" d="M2359.38,1675.22c-1.563,-50.521 -3.646,-159.561 -9.375,-225.223c-4.943,-56.649 -21.875,-135.938 -25,-168.75c-0.911,-9.56 -2.544,-24.264 6.25,-28.125c21.354,-9.375 81.009,-19.865 121.875,-28.125c48.958,-9.896 129.167,-26.042 171.875,-31.25c27.918,-3.405 62.5,-4.688 84.375,0c17.817,3.818 35.059,14.254 46.875,28.125c11.979,14.063 19.279,36.545 25,56.25c9.375,32.292 23.738,91.102 31.25,137.5c8.854,54.688 18.75,130.729 21.875,190.625c2.931,56.183 1.19,112.656 -3.125,168.75c-4.688,60.938 -15.625,145.833 -25,196.875c-6.85,37.293 -19.271,81.771 -31.25,109.375c-9.207,21.217 -20.313,45.313 -40.625,56.25c-20.313,10.938 -53.998,10.154 -81.25,9.375c-36.458,-1.042 -92.708,-7.813 -137.5,-15.625c-44.304,-7.727 -100.521,-22.396 -131.25,-31.25c-18.402,-5.302 -44.271,-13.021 -53.125,-21.875c-7.366,-7.366 -1.27,-20.911 0,-31.25c3.646,-29.688 17.188,-97.917 21.875,-146.875c4.67,-48.78 5.208,-109.412 6.25,-146.875c0.722,-25.957 0.803,-51.947 0,-77.902Z" style="fill:#424242;stroke:#fff;stroke-width:3.13px;"/><path id="Right-Middle-Window" serif:id="Right Middle Window" d="M1235.02,2190.59c-1.074,-11.261 -2.132,-38.135 1.421,-48.32c2.597,-7.445 12.136,-11.4 19.897,-12.791c12.554,-2.25 36.951,-0.484 55.426,-0.711c48.321,-0.592 163.438,-2.25 234.497,-2.842c63.952,-0.533 143.304,-0.592 191.862,-0.711c33.161,-0.08 76.389,-0.71 99.483,0c13.099,0.403 30.911,1.54 39.083,4.264c4.949,1.65 9.167,6.923 9.949,12.08c1.184,7.817 -0.119,25.463 -2.843,34.819c-2.351,8.076 -6.667,16.415 -13.501,21.318c-7.959,5.71 -22.061,12.371 -34.254,12.943c-55.545,2.605 -205.044,2.042 -299.016,2.69c-88.272,0.61 -215.797,1.783 -264.82,1.201c-9.897,-0.118 -23.122,-0.703 -29.319,-4.693c-5.828,-3.752 -7.207,-12.348 -7.865,-19.247Z" style="fill:#424242;stroke:#fff;stroke-width:3.13px;"/><path id="Left-Middle-Window" serif:id="Left Middle Window" d="M1231.62,1175.8c-0.902,11.276 -1.552,38.163 2.156,48.293c2.709,7.405 12.307,11.214 20.088,12.487c12.587,2.06 36.954,-0.077 55.431,-0.131c48.324,-0.142 163.453,-0.233 234.513,-0.721c63.953,-0.439 143.297,-1.585 191.85,-2.204c33.159,-0.423 76.392,-0.45 99.472,-1.512c13.092,-0.602 30.884,-2.009 39.014,-4.857c4.923,-1.724 9.061,-7.061 9.764,-12.23c1.065,-7.833 -0.506,-25.458 -3.371,-34.772c-2.474,-8.039 -6.916,-16.311 -13.824,-21.11c-8.045,-5.589 -22.247,-12.034 -34.446,-12.421c-55.578,-1.761 -205.051,1.074 -299.023,1.853c-88.271,0.732 -215.799,1.496 -264.808,2.823c-9.894,0.268 -23.108,1.055 -29.244,5.138c-5.77,3.84 -7.019,12.456 -7.572,19.364Z" style="fill:#424242;stroke:#fff;stroke-width:3.12px;"/><path id="Right-Front-Window" serif:id="Right Front Window" d="M2015.31,2190.67c-8.237,-5.685 -21.607,-22.466 -27.521,-30.143c-3.619,-4.699 -6.796,-10.751 -7.958,-15.917c-1.105,-4.914 -1.855,-11.478 0.988,-15.078c2.842,-3.601 10.342,-5.719 16.066,-6.524c11.774,-1.656 36.348,-3.221 54.574,-3.411c45.378,-0.474 164.547,-1.705 217.694,0.569c33.979,1.453 67.683,7.244 101.189,13.075c36.478,6.348 90.294,18.854 117.675,25.013c15.649,3.519 36.004,7.106 46.615,11.938c7.317,3.331 14.781,13.454 17.055,17.054c1.012,1.602 -1.518,4.464 -3.411,4.548c-27.95,1.231 -109.521,2.349 -164.29,2.842c-63.101,0.569 -156.521,0.569 -214.316,0.569c-44.152,0 -106.729,0.187 -132.456,-0.569c-7.416,-0.218 -15.797,0.248 -21.904,-3.966Z" style="fill:#424242;stroke:#fff;stroke-width:3.13px;"/><path id="Left-Front-Window" serif:id="Left Front Window" d="M2015.31,1154.64c-8.237,5.685 -21.607,22.466 -27.521,30.142c-3.619,4.7 -6.796,10.752 -7.958,15.918c-1.105,4.914 -1.855,11.478 0.988,15.078c2.842,3.601 10.342,5.719 16.066,6.524c11.774,1.656 36.348,3.221 54.574,3.411c45.378,0.474 164.547,1.705 217.694,-0.569c33.979,-1.453 67.683,-7.244 101.189,-13.075c36.478,-6.348 90.294,-18.854 117.675,-25.013c15.649,-3.519 36.004,-7.106 46.615,-11.938c7.317,-3.331 14.781,-13.454 17.055,-17.054c1.012,-1.602 -1.518,-4.464 -3.411,-4.548c-27.95,-1.232 -109.521,-2.349 -164.29,-2.842c-63.101,-0.569 -156.521,-0.569 -214.316,-0.569c-44.152,0 -106.729,-0.187 -132.456,0.569c-7.416,0.218 -15.797,-0.249 -21.904,3.966Z" style="fill:#424242;stroke:#fff;stroke-width:3.13px;"/><path id="Right-Back-Window" serif:id="Right Back Window" d="M315.625,2206.25c1.467,-9.462 21.97,-37.99 34.375,-50c10.951,-10.603 24.886,-20.548 40.053,-22.063c47.942,-4.787 165.041,-5.759 247.598,-6.662c101.594,-1.11 277.932,-0.054 361.961,0c47.405,0.031 113.716,-0.599 142.214,0.327c9.743,0.316 22.497,0.283 28.773,5.225c6.277,4.942 7.771,15.834 8.883,24.427c1.477,11.415 1.728,31.01 -0.019,44.067c-1.399,10.456 -25.752,5.502 -38.842,5.897c-57.178,1.723 -204.297,3.516 -304.224,4.441c-98.444,0.911 -212.809,0.925 -295.342,1.11c-66.619,0.149 -162.284,1.128 -199.856,0c-8.814,-0.265 -26.925,1.945 -25.574,-6.769Z" style="fill:#424242;stroke:#fff;stroke-width:3.13px;"/><path id="Left-Back-Window" serif:id="Left Back Window" d="M315.625,1165.58c1.467,9.461 21.97,37.989 34.375,50c10.951,10.603 24.886,20.548 40.053,22.063c47.942,4.787 165.041,5.759 247.598,6.662c101.594,1.11 277.932,0.054 361.961,0c47.405,-0.031 113.716,0.599 142.214,-0.327c9.743,-0.316 22.497,-0.283 28.773,-5.225c6.277,-4.942 8.184,-15.791 8.883,-24.427c1.022,-12.628 -1.001,-38.287 -2.748,-51.344c-1.399,-10.456 -28.795,-5.68 -43.389,-5.896c-55.056,-0.814 -191.295,0.884 -286.943,1.016c-98.564,0.136 -220.237,-0.319 -304.438,-0.201c-66.922,0.094 -163.042,-0.37 -200.765,0.91c-8.813,0.299 -26.925,-1.945 -25.574,6.769Z" style="fill:#424242;stroke:#fff;stroke-width:3.13px;"/><path id="Back-Window" serif:id="Back Window" d="M246.875,2051.5c2.083,-61.459 -8.333,-225.733 -9.375,-326.504c-0.958,-92.709 1.042,-213.542 3.125,-278.125c1.18,-36.573 7.813,-84.896 9.375,-109.375c0.796,-12.475 3.646,-27.083 0,-37.5c-3.646,-10.417 -13.155,-18.176 -21.875,-25c-11.979,-9.375 -38.542,-25.521 -50,-31.25c-5.667,-2.834 -13.542,-4.688 -18.75,-3.125c-5.208,1.563 -11.165,6.761 -12.5,12.5c-5.208,22.396 -14.422,81.001 -18.75,121.875c-4.688,44.271 -7.564,95.766 -9.375,143.75c-2.083,55.208 -4.358,125.003 -3.125,187.5c1.563,79.167 8.333,225 12.5,287.5c1.96,29.398 8.854,66.146 12.5,87.5c2.339,13.699 4.688,33.333 9.375,40.625c3.426,5.33 12.817,5.35 18.75,3.125c12.5,-4.688 43.229,-19.001 56.25,-31.25c11.55,-10.866 21.338,-26.398 21.875,-42.246Z" style="fill:#424242;stroke:#fff4f4;stroke-width:3.13px;"/></svg>